<svg xmlns="http://www.w3.org/2000/svg" viewBox="0 0 1000 155.015" enable-background="new 0 0 1000 155.015"><defs><filter id="a" x="0" y="0" width="200%" height="200%"><feOffset result="offOut" in="SourceAlpha" dy="2"/><feGaussianBlur result="blurOut" in="offOut" stdDeviation="2"/><feBlend in="SourceGraphic" in2="blurOut"/></filter></defs><g fill="#aaa" filter="url(#a)"><path d="M121 85.5c-2 1.2-3.2 3.3-3.2 6.3v39c0 .2 0 .4-.3.6-2.5 2-5.2 3.4-8 4.5-3 1-6 2-9.2 2.4-3.2.6-6.3 1-9.5 1-3 .3-6.2.4-9.2.4-4.5 0-9-.2-13.7-.5-8.3-.6-15.6-2.7-22.2-6.2-6.5-3.4-12-8-16.7-13.6-4.5-5.6-8-12-10.5-19.2-2.5-7-3.7-14.7-3.7-22.6 0-9.2 1.6-17.3 5-24.4 3.2-7 7.8-13 13.5-17.8 5.7-4.8 12.4-8.4 20-10.8C61 22.2 69 21 77.8 21c4.6 0 9.3.2 14 .7 4.7.5 9.3 1 13.8 1.7l6 1 6.2.7c.4 0 .6.3.6.7-.2 3.7-.5 7.4-1 11l-1.6 10.7c0 .7-.2 1.4-.3 2 0 .8-.2 1.4-.3 2 0 .3-.2.5-.5.6-.4 0-.6 0-.7-.4-1-4.5-2.4-8.3-4.5-11.5-2.2-3-4.8-5.7-8-7.8-3-2.2-6.7-3.7-10.6-4.7-4-1-8-1.5-12.3-1.5-7 0-13.8 1.2-20 3.6-6 2.4-11.4 5.7-16 10C38.4 44 34.8 49 32 55c-2.6 6-4 12.7-4 20 0 7.8 1.5 15.2 4.4 22 3 7 7 13.2 12 18.4 5 5.2 10.8 9.3 17.7 12.4 7 3 14.3 4.5 22.3 4.5 3.4 0 6.8-.4 10.3-1 3.5-1 6.5-2.6 9-5.2V91.4c0-2.4-.8-4-2.3-5-1.6-1-3.3-1.6-5.3-2.2-.8 0-1.6-.4-2.5-.7-.8-.3-1.6-.7-2.4-1.3-.2-.2-.3-.4-.2-.6 0-.3.3-.4.6-.4h18.3l18.3.7.2 1.3c-2.7.5-5 1.3-7.2 2.5zM202.5 126.6l-4-.3-2.7-.2H193c-2.3 0-4.7 0-7 .3l-7 .6c-.5 0-.7-.2-.8-.6 0-.3 0-.5.3-.7l6-3c-1.7-4.8-3.5-9.6-5.4-14.3L173.7 94h-24l-2.2 6-3 8-2.4 8.2c-.7 2.5-1 4.3-1 5.5 0 1.5.6 2.5 2 3 1.3.4 2.6.8 3.8 1v1.2l-6-.6c-2-.2-4-.3-6.2-.3-2 0-4 .2-6.2.4-2 0-4 .3-6.2.5-.3 0-.5 0-.5-.6 0-.4 0-.6.4-.7 5.8-.7 9.7-3.7 12-9v.2c3-7.7 6-15.2 8.7-22.7l8.2-22.8 5.3-15.4 5.5-15.3c0-.3.4-.4.7-.4.3 0 .5 0 .6.4.6 1.5 1 3 1.7 4.3l1.6 4.2c4.3 11.6 8.7 23.2 13.3 35 4.5 11.5 9.8 23 15.7 34 1.2 2.4 2.8 4 4.7 5.2 2 1 4 1.6 6.6 1.8v1.2c-1.5.3-3 .3-4 .2zm-40.8-70l-5 16c-1.6 5.3-3.4 10.7-5.4 16.3h20l-9.6-32.3zM318.2 126.8h-12.5c-4.2 0-8.2 0-12.3-.4-.6 0-.8-.2-.6-.7l.3-.6.3-.6 1-2.7c.2-1 .4-2 .4-2.7 0-6-.3-11.7-1-17.4-.4-5.7-1-11.5-1.8-17.2l-1.3-9.4-.8-9.5c-4 7.5-7.8 15-11.4 22.6l-10.8 23-3.7 7.6c-1 2.6-2.3 5-3.5 7.7 0 .2-.3.3-.5.3s-.4 0-.6-.3c-4.7-6.6-8.8-13.3-12.3-20.2-3.3-6.8-6.6-13.6-9.7-20.5l-4.4-10-4.7-9.5-1 7.5-.8 7.2c-1 6.4-1.6 12.7-2.2 19-.6 6.3-1 12.7-1 19.2 0 1.7.5 3 1.5 3.7 1 .6 2 1.2 3.4 1.7l1.7.7 1.2.7c.4.2.5.4.4.7 0 .4-.4.5-.7.5-1.5 0-3 0-4.3-.2-1.4 0-2.8 0-4.3-.2l-4.3-.2H211c-1 0-2 0-3.2.2-.3 0-.5 0-.6-.5 0-.3 0-.5.3-.6l1.8-.3c1.3 0 2.2-.4 3-.6 1-.3 1.7-1 2.4-2 .2-.4.5-1.8.8-4.2l1.3-9 1.5-12.5 1.6-14.2 1.6-14.3 1.4-13 1-9c0-2.6.3-4.5.5-5.6 0-.3.3-.5.5-.6.3 0 .5 0 .7.3 1.3 1.3 3 4 5.3 8 2.2 4 4.7 8.5 7.3 13.8L246 79c3 6 5.5 11.3 7.8 16.4l4.4 9.3c1 2.6 2 4.7 3 6.5 1.7-3.3 3.4-7 5-10.8 1.8-3.8 3.5-7.7 5-11.5 3.7-8.4 7.5-16.8 11.6-25.4 4-8.5 8.3-16.2 12.8-23h.6c.2 0 .3 0 .3.4l.6 5.2.8 7.6 1 12.5 1.6 14 1.5 14c.5 4.4 1 8.5 1.6 12.2.5 3.7 1 6.8 1.6 9.3.5 2.6 1 4 1.5 4.8 1.2 1.6 2.3 2.7 3.3 3 1 .6 2.3 1 3.7 1 .7.3 1.5.5 2.3.5.7 0 1.5.3 2.3.7v1.3zM367.8 119l-1 6.8c0 .3 0 .5-.5.5h-.2c-.7.5-1.4.6-2 .6-2.3 0-4.7 0-7-.2h-13.3c-2-.2-4-.2-6-.2H329l-8.4.3v-1.3c1.5 0 2.8-.4 3.8-1 1-.7 1.7-1.6 2.2-2.6.5-1 1-2 1-3.4.2-1.3.2-2.6.2-4V50.4c0-2-.4-3.4-1.4-4-1-.6-2-1-3.2-1.5l-2-.7c-1-.2-1.7-.6-2.5-1-.3-.3-.4-.5-.3-.8 0-.2.2-.4.5-.4h44l1.4-.5c.5-.2 1-.3 1.3-.6.5-.2.7 0 .7.7l-1 7.5-1.6 7c0 .2-.2.3-.6.3-.4 0-.5-.2-.5-.6-.4-3.6-1.6-6-4-7-2-1.2-5-1.8-8.2-1.8h-12.2v31.6h18c.4 0 1 0 2-.4l2.4-1c1-.6 2.3-1 3.4-1.3.5-.3.8 0 .8.5 0 1.2-.3 2.6-.4 4-.2 1.4-.3 2.8-.6 4l-.4 4c0 1.2-.3 2.5-.5 3.8 0 .3 0 .5-.4.6-.3 0-.6 0-.8-.3-.5-.5-.8-1-1-1.5 0-.5-.3-1-.5-1.7l-.6-2c0-.5-.5-1-1-1.6-.5-.6-1.5-1-3-1.2l-4.4-.7h-13v31.8c1.6 2.2 3.8 4 6.6 5.2 2.8 1 5.6 1.7 8.3 1.7 3.6 0 6.6-1 9.2-2.8 2.5-2 4.2-4.7 5-8.2l1.2.3c-.5 2.4-1 4.7-1.2 7zM462 72.5c0 .2 0 .3-.3.2-.2 0-.3 0-.3-.3 0-2-.5-3.3-1.6-4-1-1-2.5-1.3-4.4-1.3-.8 0-1.6 0-2.4.2l-2.3.3c-.6.2-1.3.3-2 .3h-2v17.5h12c.5 0 1-.2 1.5-.5l1.2-1c0-.2.3-.2.4-.2.2 0 .2.2.2.4 0 1.6-.2 3.2-.4 4.8l-.8 4.7-.4.2c-.2 0-.3-.2-.3-.3.2-2-.3-3.3-1.4-4-1-.8-2.5-1.2-4.4-1.2h-7.4V106c0 .7 0 1.4.4 2.2.3.8.7 1.4 1.3 2 .5.6 1 1 1.8 1.5.7.3 1.5.5 2.3.5v.7h-.6c-.6 0-1.3 0-1.8-.2-.6 0-1.3 0-2-.2H441c-.6.2-1.3.2-2 .3h-2.5c-.2 0-.3-.2-.3-.4s0-.4.2-.4c1-.2 2-.4 2.5-.7.5-.2 1-.6 1.2-1 .2-.5.4-1 .4-1.7V69.2c0-1.5-.2-2.3-.7-2.7-.7-.3-1.3-.6-2-.7-.3 0-.7-.3-1-.4l-1.5-.7c-.2 0-.2-.2-.2-.4l.4-.2c3.7.3 7.5.4 11.3.4h12.3c1.6 0 2.8-.3 4-1h.3c0 .2.2.3 0 .5l-1.5 8.5z"/><path d="M946.3 28.8c0 3.7-.6 7-1.4 10-.2.2-.4.4-.8.4-.3 0-.5-.2-.6-.5-.6-2.7-1.4-5-2.5-6.6-1-1.6-2.5-3-4.2-4-1.8-1-3.7-1.5-6-2-2-.3-4.3-.5-6.7-.5H511.6v95c0 4.3 1.4 8 4.2 11 2.7 3 6.2 5 10.3 5.6.3.2.4.4.4.8s-.3.6-.6.6l-11.4-1-11.7-.2c-2.8 0-5.6 0-8.3.3-2.8 0-5.6.3-8.4.5-.3 0-.5-.2-.6-.5 0-.4 0-.7.4-.8 2.6-.5 4.7-1 6-1.8 1.6-.7 2.7-1.6 3.4-2.7.7-1 1-2.4 1.3-4l.2-6.5v-96H470c-3.6 0-6.7 1-9.3 3.5-2.7 2.5-4.6 5.2-6 8.2-.2.4-.4.5-.7.4-.2 0-.4-.3-.4-.6l-.3-3c0-2 .3-4.2.8-6.3l2-6.2c.2-1 .5-2.2 1-3.2l.7-3c.2-.7.5-.8 1-.3 2.2 1.4 4.5 2.3 6.6 2.6 2.2.3 4.7.5 7.5.5h463.5c.8 0 1.8 0 2.8-.4l3-.6c.5 0 1-.2 1.8-.4l2.2-.3c.3 0 .5.2.5.7v1.3c0 3 0 6.5-.2 10z"/><path d="M611.2 127.2c-5.5-.3-11-.4-16.3-.4h-6l-5.8.3c-.4 0-.5 0-.6-.5 0-.3 0-.6.4-.7 3.2-1 5.3-2 6.2-3.7s1.4-4 1.4-7.2v-32H543V115c0 6.5 3.4 10 10 10.6.5 0 .6.2.6.6 0 .5 0 .7-.5.7h-4.7c-1.4 0-3 0-4.6.2h-4c-1.4.2-2.8.2-4 .2H532c-1.4 0-2.7 0-4-.2h-3c-.3 0-.5-.3-.6-.7 0-.3 0-.6.4-.7 1.7-.3 3-.6 4-1 1-.3 2-1 2.4-1.5.5-.7.8-1.5 1-2.6l.2-4v-66c0-2.2-1-4-2.7-5-1.8-1-3.7-1.8-5.8-2v-1c4.2.2 8.5.4 12.7.4h13.8c.3 0 .5 0 .5.5 0 .4-.2.6-.5.6-1.8 0-3.5.7-5 1.8-1.5 1.2-2.3 2.8-2.3 4.8v27h47.4V51.3c0-2.5-.7-4-2-4.8-1.2-.6-2.8-1.2-4.7-1.7-.5 0-1-.2-1.2-.3-.4 0-.8-.3-1.2-.4-.3 0-.4-.2-.4-.6 0-.3.3-.5.6-.5 5 .2 9.7.4 14.4.4h6.2c2-.2 4.2-.2 6.3-.3.3 0 .5.2.5.6 0 .4 0 .6-.4.7-2.2.4-4 1-5.4 1.8-1.3 1-2 2.5-2 5v63.5c0 3.5.8 6.2 2.3 8 1.6 1.7 4 3 7.6 3.5v1.2zM694 128.4c-1.8.4-3.7.7-5.5.7-3 0-6-.5-8.4-1.6-2.3-1.2-4.6-2.6-6.5-4.4-2-1.7-3.8-3.7-5.5-6l-5-7-4.5-6.4c-1.6-2-3.3-4-5.2-5.7-2-1.8-4-3.2-6.2-4.2-2-1-4.6-1.5-7.4-1.5H637c-.6 0-1.4 0-2.2.3v22c0 3 1 5.5 2.7 7.6 1.8 2 4.2 3.3 7.2 3.6v1.3c-2.4 0-4.7-.3-7-.5l-7-.2c-2.5 0-4.7 0-7 .3l-6.8.8c-.5 0-.7 0-.8-.4-.2-.4 0-.7.2-1 2.2-1 4-2.4 5.4-4.5 1.4-2 2.2-4.3 2.2-6.7V53c0-2.3-1-4.3-2.6-6-1.7-2-3.7-3.2-6-3.8-.4 0-.5-.3-.5-.7 0-.3.2-.5.5-.5H646c3 0 6.3.4 9.4 1 3 1 5.8 2 8.2 3.8 2.3 1.6 4.3 3.8 5.7 6.5 1.4 2.7 2.2 6 2.2 9.6 0 4.8-1.4 9.5-4 14-3 4.4-6 8.2-9.3 11.4L662 93c1.2 2 2.7 4 4.2 6l7.2 9.6c2.5 3.2 5.2 6.2 8 8.8 2.7 2.6 5.6 4.7 8.6 6.2s6 2 9.2 1.6l.4 1.2c-1.7 1-3.6 1.5-5.5 2zm-34.7-68c-.8-2.5-2-5-3.5-7-1.5-2.3-3.4-4-5.7-5.5-2.2-1.5-4.8-2.2-7.8-2.2-1.2 0-2.5 0-3.7.3-1.2.2-2.4.6-3.5 1v38.6l5 .6 5.2.2c5.7 0 9.7-1.6 12-4.7 2.2-3.2 3.3-7.5 3.3-13 0-2.8-.4-5.5-1.2-8.2zM772.7 103.8c-2.4 5-5.6 9.5-9.7 13.2s-8.7 6.6-14 8.7c-5.3 2-11 3-16.8 3-4.8 0-9.8-1-15-3.5-5.2-2.4-10-5.5-14.3-9.3-4.5-4-8-8.2-11-13-2.7-5-4.2-9.8-4.2-14.8 0-7.5.7-14 2-19.4s3.8-10 7-13.7c3-3.7 7-6.8 12-9.2 5-2.5 11.3-4.4 18.7-6h2c6.6-.7 12.7.3 18.4 2.7 5.5 2.4 10.5 5.8 14.7 10.2 4.3 4.4 7.6 9.6 10 15.6 2.4 6 3.6 12.3 3.6 19 0 5.8-1.2 11.4-3.6 16.5zm-42-59c-1.3 0-2.6 0-3.8.2v78c1 .4 2.4.6 3.7.7v-79zm9.2 78.5c2.7-.5 5.2-1.3 7.6-2.5 4-2 7.4-4.7 10-8 2.8-3.4 5-7.3 6.3-11.7 1.3-4.4 2-9 2-14s-.8-10-2.3-15.2c-1.5-5-3.7-9.6-6.6-13.6-3-4-6.5-7.2-10.8-9.7-2-1.2-4-2-6.3-2.7v77.5zm-2.8-78c-1.2-.3-2.5-.4-3.8-.5v79H737.2V45zm-13 0c-2.4.6-4.6 1.4-6.7 2.3-4 2-7.5 4.6-10.3 8-2.8 3.3-5 7-6.4 11.5-1.5 4.5-2.3 9.2-2.3 14 0 5.3.8 10.4 2.3 15.4 1.6 5 4 9.7 7 13.7 3 4.2 6.7 7.5 11 10 1.7 1 3.5 1.8 5.4 2.4v-77zM868 43.8h-.3l-4.5 1.6c-1.6.6-2.4 1.7-2.4 3.2V92.2c0 6 0 11.8-.2 17.7-.2 5.8-.6 11.7-1 17.5 0 .2-.2.4-.5.6 0 .2-.4.2-.6 0-5-4.2-10-8.8-14.8-13.7l-14.6-15c-4.8-5-9.5-10.3-14.2-15.5l-13.3-15.2-4-4.4c-1-1.4-2.3-3-3.7-4.4-.3 2.8-.5 5.4-.5 8 0 4 0 8 .2 11.8 0 4 .2 7.8.4 11.7 0 4 .3 8 .4 11.8v12c0 1.8.3 3.2.6 4.3.3 1 .7 2 1.2 2.5s1 1 1.7 1.3c.5.4 1.2.6 2 .7l2.4.7c1 .2 1.8.8 3 1.6.2.2.3.4.2.7 0 .2-.2.4-.5.4-1 0-2 0-3-.2-1 0-2-.2-3-.4l-4.4-.4-4.4-.2c-1.8 0-3.7.2-5.7.4l-6 1c-.2 0-.4 0-.6-.4-.2-.4-.2-.6 0-.8l2.2-1.7 2-1c1.2-.7 2.3-1.6 3.3-2.7 1-1 1.5-2.8 1.5-5V43l1.2-2.4c0-.2.3-.4.5-.5.2 0 .3 0 .4.3 11.4 11.6 22.3 23 32.8 34.4 10.5 11.3 21.2 23 32 35v-.4-14l-.3-14.3-.3-14.2-.2-14c0-2-.2-3.3-.5-4.4-.4-1-1-2-1.5-2.5-.6-.6-1.3-1-2-1.2l-2.2-.5c-.8 0-1.5-.2-2.2-.4-.7-.2-1.3-.6-1.8-1-.2-.3-.2-.6 0-1 0-.2.3-.3.5-.2 2.4.3 4.6.5 6.6.5H868l.3 1.4h-.4zM926.7 119l-1 6.8c0 .3-.2.5-.6.5-.8.5-1.5.6-2 .6-2.4 0-4.8 0-7.2-.2h-13.2c-2-.2-4-.2-6-.2H888c-2.8 0-5.6.2-8.3.3v-1.3c1.5 0 2.8-.4 3.7-1 1-.7 1.8-1.6 2.3-2.6.5-1 .8-2 1-3.4l.2-4V50.4c0-2-.6-3.4-1.5-4s-2-1-3.2-1.5l-2-.7c-1-.2-1.7-.6-2.5-1-.2-.3-.3-.5-.2-.8 0-.2.2-.4.5-.4h44.2l1.3-.5c.5-.2 1-.3 1.3-.6.5-.2.8 0 .8.7-.3 2.6-.7 5-1.2 7.5l-1.4 7c0 .2-.4.3-.7.3-.4 0-.6-.2-.6-.6-.2-3.6-1.4-6-3.7-7-2.3-1.2-5-1.8-8.3-1.8h-12.3v31.6h18c.5 0 1.2 0 2-.4l2.5-1c1-.6 2-1 3.3-1.3.5-.3.8 0 .8.5l-.3 4-.6 4-.3 4c0 1.2-.3 2.5-.5 3.8 0 .3 0 .5-.4.6-.2 0-.5 0-.7-.3l-1-1.5c0-.5-.2-1-.4-1.7l-.7-2-1-1.6c-.7-.6-1.6-1-3-1.2l-4.5-.7h-12.9v31.8c1.5 2.2 3.7 4 6.6 5.2 2.8 1 5.6 1.7 8.2 1.7 3.7 0 6.7-1 9.3-2.8 2.5-2 4.2-4.7 5-8.2l1.2.3c-.6 2.4-1 4.7-1.3 7zM983.7 114.4c-2 3-4.3 5.5-7.2 7.6-3 2.2-6.2 3.8-9.8 5-3.5 1.2-7 1.8-10 1.8-1.6 0-3.3-.2-5-.6-1.7-.3-3.2-1-4.6-1.8-1.3-.8-2.4-1.8-3.3-3-1-1.4-1.3-3-1.3-5 0-1.2 0-2.5.4-3.7s.4-2.4.6-3.6l.8-3.6c0-.3.2-.4.6-.4.5 0 .7 0 .7.4v2.3c0 2.2.4 4 1.4 5.8.8 1.6 2 3 3.4 4.2 1.5 1.2 3 2 5 2.6 2 .6 4 1 5.8 1 2 0 3.8-.4 5.8-1s3.7-1.6 5.3-2.7c1.6-1.2 3-2.7 4-4.4 1-1.7 1.5-3.6 1.5-5.6 0-2-.5-4-1.4-5.8-1-2-2.2-4-3.7-5.8-1.6-2-3.3-4-5.3-6l-6-5.8L955 80c-2.3-2.2-4.2-4.3-5.8-6.5-1.7-2.3-3-4.5-4-6.8-1-2.2-1.6-4.6-1.6-7 0-3.4 1-6.5 3-9s4.3-4.6 7.2-6.2c3-1.6 6-2.8 9.4-3.5 3.5-.8 6.6-1.2 9.5-1.2 4 0 8 .5 11.3 1.6.3.2.4.4.4.6-.4 5-1 10.2-1.8 15.6 0 .3-.3.5-.6.5s-.5 0-.6-.4c-1-3.6-2.4-6.7-4.8-9.3-2.3-2.6-5.4-3.8-9.2-3.8-4 0-7.2 1.2-9.8 3.7-2.6 2.6-4 5.8-4 9.7 0 2 .5 4 1.4 5.6.8 1.8 2 3.5 3.4 5 1.4 1.8 3 3.4 5 5l5.6 5 6.4 5.4c2 2 4 4 5.6 6 1.7 2 3 4.4 4 6.7 1 2.4 1.6 5 1.6 7.8 0 3.6-1 7-3 10zM432.2 100c-1.4 2.8-3.2 5.3-5.5 7.4-2.3 2-5 3.8-8 5-3 1-6.2 1.7-9.5 1.7-2.8 0-5.6-.6-8.6-2-3-1.3-5.7-3-8-5.2-2.6-2.2-4.6-4.6-6.2-7.4-1.7-2.7-2.5-5.5-2.5-8.3 0-4.2.3-8 1-11 1-3 2.2-5.7 4-7.8 1.7-2 4-4 7-5.3 2.8-1.5 6.3-2.6 10.4-3.5h1.2c3.7-.3 7.2.2 10.5 1.6 3.3 1.5 6 3.4 8.5 6 2.4 2.4 4.3 5.3 5.7 8.7 1.3 3.4 2 7 2 10.7 0 3.4-.7 6.6-2 9.5zm-24-33.6h-2V111l2 .2V66.4zm5.3 44.6c1.6-.3 3-.8 4.4-1.4 2.2-1.2 4-2.7 5.6-4.6 1.6-2 2.8-4 3.6-6.6.7-2.6 1-5.2 1-8 0-3-.3-5.8-1-8.7-1-2.8-2.2-5.4-4-7.7-1.6-2.3-3.6-4-6-5.5-1.2-.7-2.4-1.2-3.7-1.5v44zM412 66.6l-2.2-.2v45h.2c.7 0 1.3 0 2-.2V66.6zm-7.4 0c-1.4.4-2.6.8-3.8 1.4-2.3 1-4.3 2.6-6 4.5-1.5 2-2.7 4-3.5 6.6-1 2.6-1.3 5.2-1.3 8 0 3 .4 5.8 1.3 8.7 1 3 2.2 5.5 4 7.8 1.7 2.3 3.8 4.2 6.2 5.6 1 .7 2 1.2 3 1.5V66.7z"/></g></svg>