<svg version="1" xmlns="http://www.w3.org/2000/svg" width="346.667" height="346.667" viewBox="0 0 260.000000 260.000000"><path d="M6.8 5.6c-1.8 1.7 4 14.5 10 22 3.9 4.8 37.8 39.5 80 81.6l20.7 20.8-15.1 14.7c-8.3 8.2-23.6 23.1-34 33.2l-18.9 18.3-5.3-5.7c-4.5-4.9-5.2-6.2-4.7-8.4.4-1.4 1.2-2.9 1.8-3.3.8-.5.4-.8-.8-.8-2.3 0-6.5 2.6-6.5 4 0 .5.6 1.5 1.3 2.2 5 5.1 13.7 16.4 13.7 17.7 0 .9-7.1 8.9-15.8 17.8-14.8 15.2-19.3 18.6-22.1 16.9-1-.6-6.1 4.8-6.1 6.6 0 .5-.9 2.1-2 3.5-2.7 3.5-2.5 4.3.9 4.3 3 0 4.6 2 4.2 5.3-.3 2.1 3.1 2.3 4.9.2.7-.8 1.8-1.5 2.5-1.5s2.8-1.3 4.8-2.8c2.5-2 3.3-3.3 2.7-4.2-1.5-2.4 3-8.8 13-18.5C50.9 215 56.4 210 57.6 210c.5 0 5 3.4 9.9 7.5s9.4 7.5 10.1 7.5c.6 0 1.6-1.1 2.2-2.5 1.7-3.8 1.5-4.7-.7-3.5-3.3 1.7-4.7 1.2-10.5-4.2l-5.6-5.3L80.9 191c9.8-10.2 24.7-25.5 33-34l15.1-15.5 20.5 20.8c11.3 11.4 20.5 21.1 20.5 21.5 0 .5-2.5 2.4-5.5 4.3-5.9 3.7-6 3.9-4.2 8.2l1.2 2.9 7.6-5c4.2-2.8 8-5.5 8.3-6.1 1.7-2.8 5.2-.5 15.9 10.2 6.2 6.2 11.2 11.8 11 12.4-.2.6.5 1.3 1.7 1.6 1.1.3 2.8 1.9 3.7 3.6 1 1.7 2.3 2.9 2.9 2.7.6-.2 7.4 6 15.1 13.8 11 11.1 14.4 15.1 15.3 18.3 1.4 4.6 2.9 5.4 7.8 4.1 3.4-.9 5.2-3.8 5.2-8.4 0-2.5-.4-2.8-5.3-3.8-1.5-.4-3.8-1.7-5-2.9-1.2-1.2-2.5-2.2-2.8-2.2-1.1 0-23.4-23.7-23.7-25.1-.2-.8-.9-1.4-1.7-1.4-.7 0-2.6-1.5-4.1-3.3-1.5-1.7-3-3.2-3.3-3.2-.4 0-3.6-3.2-7.2-7-16.7-17.9-16.9-18.3-13.8-21.1 2.2-1.9 8.9-12.6 8.9-14 0-.5-1.3-1.6-2.9-2.5l-2.9-1.7-2.1 4.2c-2.7 5-4.9 8.1-5.5 7.5-.3-.2-9.8-9.7-21.3-21.1l-20.9-20.6 15-15.4c55.2-56.7 69.4-71.7 82.3-87.3C245.7 18.3 253 8 253 6.8c0-1.7-4.4.4-11 5-13.9 9.9-32.5 27-80.9 74.8l-30.6 30.2-7.5-7.5C83 69.5 27.6 15.5 24 12.9 18 8.5 8 4.3 6.8 5.6z"/></svg>