<svg xmlns="http://www.w3.org/2000/svg" viewBox="0 0 362.21 398.28"><defs><style>.cls-1{fill-rule:evenodd;fill:darkred;}</style></defs><title>Recurso 1</title><g id="Capa_2" data-name="Capa 2"><g id="splatters"><g id="_1" data-name="1"><path class="cls-1" d="M119.8 0c-1 .2-9 78-9.7 86.3-.6 7-.7 69.3-6.6 68.5-10.6-1.4 3.3-78.6 4.4-88.7.8-7 7.8-65.2 12-66zM97 10c1 1.6-.4 4.3-.2 5.7-.5-1.6 0-4 .2-5.6zM96.4 16c.5 1 .6 9.3-1 9.6 0-2.7.6-6.2 1-9.5zM66.2 26.2c.8-.3 1.6 5 .2 5-2 .4-1-4.6-.2-5zM69.7 54c.7-.5-.5.7 0 0zM77.6 59c-1 10.6 3 23 .5 33.4-1-7 2.8-29.5-.4-33.5z"/><path class="cls-1" d="M78.7 68.6s.4-.3.5-.2-.5.7-.5.2zM148.4 83.6l3.4-9.7c.8 1.4-3 8.6-3.4 9.6zM147.8 85c.7-.4-.6 1 0 0zM147.5 85.6c0 2.5-1.3 5.4-2.4 7.5a24 24 0 0 1 2.5-7.4zM85.3 85.8c.4 0 .5 1.4-.2 1a1.4 1.4 0 0 0 .3-1zM85.3 87.3c.5-.4.3 1 .3 1s-.8-.5-.3-1zM347 96.4l15.2-9c0 2-13.3 8.7-15 9zM143.6 91c-.5-2.4 1.3-2.6 0 0zM143 91.5c.6 0 0 2-.5 2 0-.8.5-1 .4-2zM90 102.3c-.5-.5-2-6.2-1-6.6s1.4 4.8 1 6.6zM89.5 102.8c-2 2.2 4.7 81 5 81.2-3.2-2.6-7.5-78.5-5-81.2zM100.6 108.5c.3 3-1.6 1 0 0zM97 135.6c-1.6-6 3.7-20.5 2-24 2.3 5-1 18.5-2 24z"/><path class="cls-1" d="M89.8 112.5c.7-.8 0 1.4-.3 1s0-1 .3-1zM84.5 120.4h.6c0 2.3.4 3.6 0 6.2-.8-1.7-.3-4.2-.5-6.2zM217.7 124.8s.3-.3.4-.2-.3.3-.3.2zM206 127.3l.4-.3-.4.3zM44.3 128a1.8 1.8 0 0 1 1 2c-1.2 0-.5-1.6-1-2zM33.7 131.7c-1.2-.2.3-1.6 0 0zM115.6 133.2c-1-1 .8-1 0 0zM53 191.2c-5-15-5.3-43-13-54.7 9.5 14.6 5.6 39.2 13 54.7zM302 139.6c1.4-.3-.2 1.6-.8 1s.4-1 1-1zM207 143.8c1-.6 0 1.5-.6 1-.4-.6 0-.8.5-1zM146.4 146.4c.5.2 0 1.3-.4 1 0-.3.5-.4.4-1zM206.6 148.2c1-.6-.3 1.2-.6 1s.3-.8.6-1zM39.5 157a.2.2 0 0 1 .4 0c-.2.3-.3 0-.5 0zM126.4 162c-1.7 5.5-2.7 11.6-5 15.8.6-1.7 3.3-16 5-15.7zM79.8 163a.2.2 0 0 1 0 .4c.5 0 3 7.4 0 7.3s0-6.8 0-7.7zM143.6 175.5c-3 1.8 0-11.6.6-11.2 1.4.7-1.8 11.2-.6 11.2zM147.3 166.3c.6-.4 0 1.2-.4 1s0-.8.3-1zM134.7 168c1.5 1 .5 7.8-1.7 7.7-4.7 0 1.7-7 1.7-7.7zM117.8 168.5c.4-.4.8.8.6 1-.3.8-1.5-.2-.6-1zM199 169.4c.7-1 .5.7 0 0zM152.4 171c0-.2.4-.4.4-.3s-.4.3-.4.2zM152 171.6c.3-1.6 1 1.4 0 .4a1.5 1.5 0 0 1 0-.4zM90.2 172.7c-.4-2 1.3-.4 0 0zM90.2 173.8c.8-.5.8 2.4.4 2.6-.5.4-1.3-2-.4-2.6zM112.5 175.3c6-2.3-3 18.8-4.4 14-1-3.4-.4-12.2 4.5-14zM171.6 178c1.3 0-.4 2.3-1 1.5s.5-1.5 1-1.5zM120 178.6c.8.5 0 3-.7 3.3 0-1.3.6-2.2.7-3.4zM88.4 179c.2-.6.7.7.5 1-.5.3-.7-.3-.6-1zM154.2 183.3c.7-.6-.6.7 0 0zM153.7 184c0-.2.6-.3.7 0s-1 1-.7 0zM141 184.4c.5-1 .2.7 0 0zM140.5 186.8c.8.4.7 2 .2 2.6-.4-1 .3-1.2-.2-2.6zM140 190c2.2-.8 6 18-2.2 18.2s-1-17.3 2.2-18.3zM177 190.5c1-.2 0 2-.8 1.8s0-1.6.7-1.8zm-.6 1zM53 191.6c4 6 4.6 15 6.5 23.4-4-3.6-5-18.4-6.4-23.4zM84 194c7.7-1 3 20-1.3 8.8-1-2.8-2.6-8 1.3-8.7zM115 194.7c1 0-1 4.6-2 3.6s1.6-3.6 2-3.6zM151.7 195.4c1-.7.2 1.5-.4 1-.4-.5.2-1 .4-1zM185 196c.6-.8.3.8 0 0zM96.2 199.6c.8 0 1.2 6.8-1.8 5.7-2.4-1 .3-5.8 1.8-5.7zM101 202.7c1.8-.7-.4 4.6-.7 1.7a3.3 3.3 0 0 1 .7-1.7zM214.4 205.3s.6-.4.6-.2c.3 1.6-1.4.5-.6.3zM153.7 205.3c1 1.6-2.7 2.5 0 0zM71.5 206.4v-.2c1.5.5-2 1 0 .2zM132.3 207.3c.8 0 .2 3.3-1 3s.3-3 1-3zM154.2 208c.8-.8.2 1-.3.4-.3-.2 0-.4.2-.4zM155.5 210.6v-.2q.8 2.2-1.4 2.6c-1.4-1 1.3-2.5 1.5-2.4zM56 211c.6-.8.5 1 0 0zM99.2 217.7q-2-2.5.5-5c2.4-1-.5 5.5-.5 5zM72.3 214c1 .8 1.3 3.7 0 3.7-1.7-.2.3-2.5 0-3.8zM162.3 214.3c1-.6 1 2-.2 2-.7 0-.3-1.6.3-2zM139.2 217.4c.2.4-.8 2.8-1.4 2.2s1-1.7 1.4-2.2zM54.3 217.7c1.2.3 1.7 2.6 1.5 3.7-1-.7-1.3-2.3-1.5-3.7zM135.2 218c.6 0 0 2.3-.7 2s0-1.8.7-2zM136 220.3c-.7-1 .7-1.5 0 0zM38 219.7c1-.8 9.4 10.2 4.6 11.2-3.3.6-6.3-10-4.5-11.3zM203 220c1.2.4-1 3.6-2 2.5-1-.8 1.2-3 2-2.6zM59 220c.6 0 .8.6.8 1.4-.8 0-.5-1-.7-1.5zM78.3 220s.4-.2.4 0-.4.2-.4 0zM165 221.6c.8 0-.6 2-1 1.6-.8-.7.5-1.6 1-1.6zM161 222v-.2c1.2 0-1 1.4 0 .3zM218.8 222.5c.7-.5-.6.7 0 0zM74 223c1.5 1.3-.5 1.6 0 0zM49.8 224.3c-1.4.2-.4-1.3 0 0zM183 224v-.2c1.2-.5-1 1.3 0 .3zM166.7 224.7c1-.2-.5 2.8-1.3 2-.6-.6 1-2 1.3-2zM56.2 225.4s.4-.3.5-.2-.4.2-.5.2zM253.6 225.8s.5-.3.7 0c.3.7-2 1-.7 0zM268 226s.4-.4.6-.2-.8.7-.7.2zM167 226.5c.7-.6-.6.7 0 0zM202 226.5c1.8-1 .3 1.5-.4 1-.3-.4.3-1 .4-1zM264.2 227c-5.4 2.4-10.8 5-16.5 7.2 2-1.4 14.4-8.7 16.5-7.3zM201.3 227.4c-.3 1-2.8 3-3.5 2-.5-1 2.4-2.2 3.5-2zM175 227.8c1 0-.6 2.4-1.2 1.8s.7-1.8 1.3-1.8zM61.8 228.7c.8.3 0 1.2 0 0zM30.6 230.4c1.6.7.3 2 0 0zM158.8 231c.6.3-.2 2.3-1 2-.8-.4 0-2 1-2zM62.6 232c.6-.6.7.7.5 1s-1-.5-.4-1zM32 232.7c1-.4 1.6 1.3 2 2.2-1-.6-1.2-1.8-2-2.3zM238.8 233a2.2 2.2 0 0 1-2 1c.6-.4 1-1 2-1zM158 234c-1-.7.7-1 0 0zM142.5 236v-.2c1 0-1 1.3 0 .2zM38.6 236.4c1.4 0 3.5 2.5 2 3s-1.5-2-2-3zM145.8 236.8c1-1.5.4 2.3-.3 1a1 1 0 0 1 .3-1zM34.8 237.3c.3-1.2.8 1.2 0 .4a1.5 1.5 0 0 1 0-.4zM167.4 237.3c3.8-.7-7.2 10-9.7 8-1-1 8.6-7.8 9.7-8zM135 238.2c1-.5.2 1.5-.4.8s0-.7.4-.8zM172.5 238.6s.3-.3.4-.2-.5.3-.5.2zM141.6 240.4c.6 0-.5 2-1 1.3s.4-1.4 1-1.3zM38.4 241c.5-.4 2.4 2 1.5 3-1.2 1-2.6-2.3-1.6-3zM62.2 241c.7-1.4 1 1.8 0 1a3.2 3.2 0 0 1 0-1zM251.8 241.5s.5-.4.7-.2c.8.8-2.8 1-.7.2zM36.4 242c.5-.6 1.5.8 1 1.2s-1.7-.6-1-1.3zM182.2 242c1.8 0-.6 2.6-1.4 2-1-.5.4-1.8 1.4-2zM198.5 244c4.7-1-2.8 3.7-3 3.2s2.5-3.2 3-3.3zM140.7 246.3c.8 0 .3 1 .2 1 4-2.5 1 0 5.2-2.3l-.2 5c-1.6 5.4-10.3 3.5-5.3-3.7zM135.2 245.4v-.2c1 0-1 1.4 0 .3zM160.8 245.4s.5-.3.6-.2-.7.7-.6.3zM40 246c1.7-.3 0 1.3 0 0zM176.4 247.2c1-.5-.2 1-.6.7s.3-.6.6-.8zM161.2 247.7c4.5-1.5-1.5 5.8-1.7 2.2a2.5 2.5 0 0 1 1.7-2.3zM31 248.5c.2-.4 1.6.3 1.2.7s-1.2-.4-1-.7zM170.3 251a14.7 14.7 0 0 1 4-2.6c-1.4 0-2 3-4 2.6zM184.4 248.5c1.6-1 .5 2.3-.5 1.4-.8-.8 0-1.3.4-1.5zM56 250c2-1.6 1.3 4.4-.4 2a1.8 1.8 0 0 1 .4-2zM33.7 250.5c.6-.4 2.6 2 1.6 2.7s-2.4-2-1.6-2.7zM180.8 250.5c.8 0-1 2.5-1.3 1.3-.3-.8 1-1.3 1.3-1.3zM213.7 251.8c-.8-.6.8-.8 0 0zM206.4 252a89.3 89.3 0 0 0-9.7 3.6c2.4-2 5.7-4 9.7-3.5zM38 252.5c.5-.3 1.7.5 1.5 1s-1.8-.6-1.4-1zM53.4 252.5c.3.2.8.5.4 1-.4-.2-.5-.5-.4-1zM36.6 253c.2-.3 2 .3 1.3 1.3-.5.7-2.4-.3-1.4-1.4zM149.5 252.7c-.2.4-.4.8-1 .7 0-.4.5-.6 1-.7zM155.7 253.6c1.4-1 .4 2.2-.4 1.3-.7-.7.2-1.3.4-1.4zM224 253.8c.8-.2 3 .2.2 1-2.4.8-1.3-.6 0-1zM142.5 255s.3-.4.4-.3c.8 1-1.5 1.2-.5.2zM33.7 258.2c.6.5-4.8-3-3.4-3a4.3 4.3 0 0 1 3.4 3zM221 256c-.3 1-2.3 3.7-3 2.4s1.7-2.2 3-2.4zM48.5 260.2a3.5 3.5 0 0 1-2.8-3.5c2-2.3 2.7 3.4 2.8 3.5zM33 258.7c.4-.6 1.4 1 .7 1.3s-1-1-.8-1.3zM155.5 258.7c4.8-1-7 8.2-8.4 4.4 0 .2 7.3-4 8.5-4.3zM187.4 259c-.6.8-3 4.8-4 2.8-.8-1.4 2.5-3 4-2.7zM165 262.4c.7 0 2.2.8 2.2 1.4s-4.2 3.6-4.6 2.2a3 3 0 0 1 2.4-3.6zM48 263a.2.2 0 0 1 .3 0c0 .2-.2 0-.4 0zM157.5 271c.7-.7 17.2-9 17.6-7 .2.4-15.7 6.6-17.5 7zM18 263.8v-.3c.7-.6 0 2 0 .3zM168.7 264.4c.8.7-.7.8 0 0zM187.4 266c-1 3.3-4 1 0 0zM42.6 268.2c3-1.3 3.3 3.2 1 3.3-1.4 0-3.2-2.5-1-3.3z"/><path class="cls-1" d="M154.2 270c1.8-1.5 15.6 3.7 6.4 10.5-7.4 5.4-8-12.3-8.2-12q2.3-1.3 1.8 1.6zM19 270q3.6 1 .4 1.7c-1.6-.6-1.3-1.7-.4-1.8zm1 1c-.2 0-.7.2-.6.3s.6-.2.5-.3zM141 270.6c1-.5-.4.7 0 0zM33.7 270.8c2-1 2.7 2.2 1.6 2.7s-3-2-1.6-2.7zM148.4 270.8s.3-.3.5-.2-.6.7-.6.2zM145 271.5c2.4-.7-.3 4.4-1.2 2.2-.3-.7 1-2.2 1-2.2zM29.6 271.7c.2-.6 1.6.4 1.3 1s-2 0-1.4-1zM40.4 271.7c.7-.6 1.6 1.6.6 1.8-.8 0-1.4-1.2-.6-1.8zM21.8 271.7c2.4 1.3 4.6 2.7 6 5a23.4 23.4 0 0 1-6-5zM150.4 273.7l.4-.2-.4.2zM27.4 274.3c1-1 3.7.5 3 1.8s-4-.7-3-1.7zM183 274.3s.3-.3.4-.2-.4.8-.4.3zM41 274.8c.6-.4 2 0 1.3 1-.4.6-2.5-.3-1.3-1zM169.2 275.7c-.2-2 1.4-.5 0 0zM168.3 276c0-.2.5-.5.6-.3s-.6.3-.7.2zM146.2 276c1-.3-1 1.3 0 0zM167 276c-.2 0 .3-.2.4 0s-.4.2-.5 0zM24.3 276.3c.3-.7 2 .7 1.3 1-.7.4-1.6-.4-1.3-1zM31.5 276.8c1 0 3.3 2 2.7 2.6s-2.7-1.6-2.7-2.6zM27.4 277.4c.8-1 1.5 1.3.6 1.6s-1.2-1-.6-1.6zM15.7 279a4 4 0 0 1 3 1.3c-1-.3-2.7-.2-3-1.3zM12 280.3c1-1 4 3 1.7 3.3-1.2.2-2.7-2-1.6-3.3zM35.3 280.5c.3.3 7 3.5 5.5 5.5s-5.4-5-5.5-5.5zM27 281.4c.5-.6 1 .7.6 1-.7.2-.8-1-.7-1zM154.6 281.8s.7.2.7.5c0 1-2.5 0-.7-.5zM158.8 282.5c.5-1 .3.7 0 0zM178.4 282.7s.3-.3.4-.2-.4.7-.4.2zM2 291a3 3 0 0 1-2-3c0-1.7 2-4 3.8-3.5 3.6.7.4 6.8-1.8 6.4zM31.5 284.7c.6-.2 3.4 1.5 1.6 2.6-1.2.8-4.4-1.7-1.5-2.6zM158 284.7c1-.8.4.8 0 .2-.3-.2 0-.3 0-.3zM185 287c-.8 2.3-2 .3 0 0zM42.8 291c-1 0-4-1.2-3.8-2 .2-.7 4.2.7 3.8 2zM36.2 289.3c.3-.7 1 .6.4.7-.2 0-.5-.4-.4-.7zM162.8 289.3c3.2-1.4 0 3-1 1.3-.6-1.2-.2-.8 1-1.3zM170.7 289.8c1.3-.6 2.4-.3 2.6.4 1 2.6-7 1.5-2.6-.4zM34 290.7s.3-.4.4-.3c.6.7-1.3 1-.4.3zM159.4 290.7c.3-.3.7-1 1.4-.3 1 1-2.8 1.7-1.4.3z"/><path class="cls-1" d="M2 291c.2 0 0 .5 0 .5-.5 0-.6-1 0-.6zM29.3 291.3c1-.6 1.7 1.5 1 1.8-1 .4-1.6-1.2-1-1.7zM27 293a.8.8 0 0 1 1 1c-.5 1-2.5-.6-1-1zM39.3 293s1-.2.6.7c-.3.5-1-.5-.7-.6zM159.7 294c.6-.2 0 1-.5.7s.3-.7.5-.7zM17.6 295.7c1-.6 2.5.2 2 1.4s-3.5-.2-2-1.3zM150.4 296.6c.8 0 0 1.5-.7 1-.4 0 0-1 .7-1zM156 298.2c.7-1 .5.7 0 0zM166 298.4c1.6-.4-.4 2-.8 1s.3-1 1-1zM45.2 298.6c.2-1 .8 1.2 0 .4a1.5 1.5 0 0 1 0-.4zM33.7 299.5a3 3 0 0 1 4 1.5c0 3-3.3 1-4 .7-1.6-.7-3.6-1.2 0-2.2zM21 300c0-.2.3-.4.4-.3s-.4.7-.4.2zM169 300c1-.5.2 1.5-.5.8-.4-.4.3-.6.4-.7zM175 300s.4-.2.5 0c.7.6-2 1-.4 0zM179.5 301.5c2.3-.4.3 2.3-1 2-1.3-.4.2-2 1-2zM42.6 303c.6-.6 1 .7.4 1a.5.5 0 0 1-.4-1zM164.3 304c3-1 4 2.8 1 2.5-1.5 0-3.3-1.7-1-2.4zM161.2 311c.6-.4 8.3-3 9-2.8-2-.5-15.7 1-16-1-.2-.6 29 .4 24 1-2.3.5-14.8 5.7-17 2.8zM.4 307.2a.2.2 0 0 1 .5 0c-.2.3-.3 0-.6 0zM4.6 308c2.4-1.4 1.5 3-.2 1.4a1.3 1.3 0 0 1 .2-1.5z"/><path class="cls-1" d="M163.2 309.4c.2-.5 1 0 1 0 0 .5-1.2.7-1 0zM22.5 310.7c.5-.3 1-.4 1.3 0 1 1.6-3 1.3-1.3 0zM152 311.8c.6-.8.7.7 0 0zM32.4 312.3c1-.8 0 1.3-.4.8-.8-.6.2-.5.4-.7zM30.6 314.3s.4-.4.5-.3-.4.7-.4.3zM50.7 314.5c1.2-.7 1 1.3.2 1.3s-1-1-.3-1.3zM129.2 314.7s.4-.4.7-.2c2 1-3.3 2-.8.2zM173 314.7c4.8-1.2-1.2 4.8-2 1.8 0-1 .5-1.5 2-1.8zM176.2 315.6c-1-1 1-1 0 0zM14 316s.2-.3.3-.2-.4.7-.4.2zM126 316.2c.3-.2 1-.5 1.2.3 1.2 2.6-4 1.3-1.3-.3zM42.3 316.5c.8-1 1 1.6 0 1a.8.8 0 0 1 0-1zM63.5 318H63c-.2-1 .8-1 .5 0zM54 319s.5-.4.7 0c.4.8-1.4.7-.7 0zM130 326.2a14.3 14.3 0 0 1 4 4.6c-1.4 5.4-12.2 4-8.4-5.2.2-.5 3.6-2 4.7-3.8q-2.2-.2-.7-2c1.3-1.3 1.6 2.5 2 2.8.2 0 2.5 2.5-1.7 3.6zM44 320.2s.3-.4.6-.2c2 1-3.2 1.8-.7.2zM144.7 320.2s.3-.3.4-.2-.3.7-.3.2zM231.8 320.2c1.3-.2-1 1.4-1 .7-.3-1 .4-.7 1-.8z"/><path class="cls-1" d="M132 320.4c.7-.5.2 1 0 1-.8.2-.6-.7 0-1zM66.8 320.6s.7-.4 1-.2c.3.5-1 .7-1 .3zM139.8 321c4.2-1-.7 6.4-1.7 2.3a2 2 0 0 1 1.8-2.4zM148.6 321c0-.5.7-.2.7 0s-.6 0-.7 0zM154.6 321s.6-.6 1-.3c.7.8-2.2 1.4-1 .2zM173 321.3c3.6.2 46 1.6 45 7 .5-2-43.7-6.2-45-7zM120 321.5a1 1 0 0 1 0-.2c.6-.6 0 1.7 0 .2zM115.3 321.8c.3-.3 1-.2.7.4-.2.3-1.3 0-.7-.4zM158.8 323.7c-.4-2.6 9.7-.6 9.5 1s-9-.8-9.5-1zM201.6 322s2.3 0 1.7.4c-.2.3-1.7-.3-1.7-.4zM152 322.6c.6-.4 1.8-.4 2 .5 0 1.7-3.8.6-2-.4zM145.8 323.3s.4-.4.6-.2c1 1-2.4 1.3-.6.3zM110 325c.4 0 .6-.5 1 0 .6 1.2-2.4.8-1 0zM117 325.5v-.2c1-.5-1.2 1.3 0 .2zM114 326c.5-.6 1 .3.7.6s-1.3 0-.7-.7zM131 326.4l.4-.2-.4.2zM170.3 326.6c.3-.6 1.4 0 1.3.4s-1.7 0-1.3-.4zM197.2 326.8s.3-.3.4-.2-.4.7-.4.2zM119 327s.7-.5 1-.2c1 1-2 1.6-1 .2zM137.8 327.3c4.8-.7 1.6 3.6 1.8 5 .2 1.4-10.8-3.7-1.8-5zM153 328.8c2.8-1-.5 3.2-.7.7 0-.5 0-.4.7-.7zM121.5 330c.4-.4 1.3.6 1.3 1.2-1 0-.6-1-1.3-1zM117.5 333s.7-.3.7 0c0 .5-1.3.6-.7 0zM56.2 333.4c.7-.4 1.2 0 1 .7 0 1.3-2.4.4-1-.6zM63.5 334.5c1 0 .2 1.4.4 2-1 0-.3-1.4-.5-2zM124.2 335c.8-1.3.5 1.5-.3.7-.3-.3 0-.7.2-.7zM140.5 336c.4-.2 1 0 1 .3.4 1.4-2.6 1-1-.2zM49.2 336.5c1.2-.5 1.6.8 1 1.6-.6.5-3-.7-1-1.5zM55 336.8c0-.5 1-.3.6.2-.2.2-.7 0-.7-.3zM104 337c-1.3.8-1-1.3 0 0zM106.3 337s.3-.3.4-.2-.4.6-.4.2zM56.2 337.4c.3 0 1.2 0 1 .7 0 1.6-2.5.3-1-.6zM118.2 337.4s.3-.3.4-.2-.4.7-.4.2zM167.8 337.6a2 2 0 0 1 2.7 1.3 4.7 4.7 0 0 1-3.8 3q-3.6-2.7 1-4.4zM134 338.3c.6-.2 1.3-.4 1.2.7-.2 2-3.8 0-1.3-.7zM159.4 338.3c.8-.8.4.8-.2.2l.2-.2zM119 338.5c.3-.3 1-.4 1.2-.2 2 2-4 2-1.3.2zM137.8 338.7c.8-.7 2.5.2 2 1s-3 0-2-1zM161.7 338.7c1.5-1 .6 2.3-.5 1-.7-.5 0-.8.5-1zM57 339.8a1.6 1.6 0 0 1 2 2.5c-1.8 2.2-4.7-1.7-2-2.5zM157.2 340c0-.4 1.2-.2.7.3-.3.2-.8 0-.8-.2zM187.7 340.3c0-.5 1-.3.6.2-.2.2-.6 0-.6-.2zM140.7 341c.7-1 .7.6 0 0zM192 341.4c4 0-.6 6-2.6 4.6-1.2-.8.4-4.7 2.5-4.6zM124.2 341.8s.3-.3.4-.2-.4.7-.4.2zM174.2 342s.4-.3.5-.2-.5.7-.5.2zM63.3 343s.6-.4.7 0c0 1-1.6.8-.7 0zM117 344.5c1.5-.3 2.6 2.4 2.5 4.8 0-.5-1 3.2-.6 3-3 3-9.3-6.7-2-7.8zM175 346c1.3.6 2.8.8 3.4 2-1-.8-2.8-.7-3.3-2zM131.7 346.4s.3-.3.4-.2c.7.6-1.2 1-.3.3zM59.5 349c3.3-.6.8 4-1.3 3q-1.7-2.4 1.3-3zM125 349c.3-.2.8-.2 1 0 .3 1-1.8 1-1 0zM67.5 350.2c.2 0 1.3 0 1 1-.5.4-2.2-.4-1-1zM137 350.2q4 .7.2 2.4-2.8-2-.2-2.4zM69.3 350.6s.3-.3.4-.2-.5.7-.5.2zM56 351.7c.2-.2.8.3.4.7s-1 0-.4-.7zM66.4 352c3.3-.8 3 4.3.4 4.2-2.2 0-3-3.6-.4-4.2zM59.3 352.6c.6-.2 1-.6 1.3.2 1 2.3-3.5 1-1.3-.2zM108.5 352.6c5.8-2.6 9.5 12 3 8.6-1-.5-7.4-6.6-3-8.6zM153.7 353.3c.7-.8.8.7 0 0zM87.8 353.7c.4-1.2 2 1.8.8 1.8-.6 0-1-1-.8-1.8zM125 355.3c1.4-.6.3 2.3-.7.8-.2-.2.4-.6.7-.7zM79.2 356c.6-.5 1 .8.4 1a.5.5 0 0 1-.4-1zM133.2 356h.7c0 .7-1.4.8-.8 0zM186 356.6c.8-.3 1.7-.5 2 0 2.4 3-6 2-2 0zM102 356.8c1-.3 4.6 4.4 3.6 5-.8.6-6.3-4-3.5-5zM49.2 360.4a5.5 5.5 0 0 1 .2-1.8c0-1.7 2.8-3 4-.2M192.5 357c.7-.4 2.5.3 2 1s-3.3 0-2-1zM61.8 357.7c1.7-1.4 1.8 1.6.4 1.5-.8 0-1.4-.7-.5-1.5z"/><path class="cls-1" d="M119.8 358a3.5 3.5 0 0 1 2 .4c7 5.5-12 1.2-2-.3zM162 358.4s.3-.4.5 0c1.2 2-4 .5-.6 0zM115 361.7c1.4-1 2.4 1 1.7 1.7s-3-.5-1.6-1.7zM169.6 362.6s.6-.5 1-.3c.5.7-1.8 1-1 .3zM131.4 362.8c.5-.2 1.2.6.5 1-.6.4-2-.7-.6-1zM139.4 363c1.7-1 .3 2.2-.5.7l.4-.7zM122.8 365c.7-.8.8.7 0 0zM105.6 366c.7-.5 1 .5.5.7s-1.3-.3-.4-.8zM188.8 367c0 1.3-1.5 0 0 0zM130 367.4c.3-.4.8-.6 1.2-.2 1 .8-2.6 1.5-1.3.2zM103 370.5l.4-.2-.4.2zM181.3 371s1.4-.4 1.5.4c.3 2-5 .6-1.5-.5zM132 371.8c1.2-.7 1.4 1.3.8 1.5s-1.5-1-.7-1.5zM154.6 372.3c.8-.8 1.2.3 1 .6s-1.5-.2-1-.8zM103 374q2.6-.6.6 2-3-.3-.6-2zM144 374c.4-.4 1 .2.7.4s-1 0-.7-.4zM120 375.3c1-1 0 1.4-.2.3 0-.3 0-.2.2-.3zM109.2 378c2-.7 0 2.8-.7 1-.2-.6.2-1 .7-1zM102 379.3c-1.5-.6 0-2.2 0 0zM121.5 383.7c.7-.6 1.5.5 1 1s-1.7-.3-1-1zM110.5 387.3a.5.5 0 0 1 1 .4c-.3.4-1.6.2-1-.4zM122.4 387.7a.2.2 0 0 1 .4 0c0 .3-.2 0-.4 0zM120 388.8c1.8-.8 5 1.8 2.6 3.7s-6.3-2-2.6-3.7zM107.6 395.2c.4-.2 1.2 0 1.3.4M120.2 397c1-1 1.5.6 1 1s-1.4-.7-1-1zM124.2 398.3c-1-.7.8-1 0 0zM86 83c-.7.7.3 2.4-.7 2.6.7-3-1.7-28.5-.2-28.3 3.4.6 3 30 1 25.6zM142.7 94c0 .6-.5.6-.5 1.3-.3 0 0-1.5.5-1.3zM334.3 105.6a35.3 35.3 0 0 1 13-8.8c-2 2.7-10 8-13 8.8zM287.4 153c3-3 30.4-24.4 31.7-23.2-.2-.3-26 20-27.2 21M282.7 157c.5 0 0 0 .5-.7M35 136.5c.4.6 1 1 .7 2-.5-.4-.5-1.3-.6-2zM112.5 204.7c1.5 3.6-4 10.6-4 15 0 1.2 6.4-12.7 8.3-16.8 3.4-7.5 9-18.4 9.5-26 .3-4 12-29.2 10-30.6.7.4 0 4-.2 5-4 14.2-8.8 27.5-12.5 41.6-1.5 5.8-5.7 11.8-6.6 17.4 0-1-3 13 .5 9.2a20.2 20.2 0 0 1 1.8-3.7c.6.4-.4 3.5-1 4 0 0-1 .5-1 .3.2 1 16-28.6 17.8-27.2 2 1.7-15 33-10.2 36-.5-.2 6 14 5.7 14a25.4 25.4 0 0 1 4-3.3c-.7 3.7 2.7 1.6 4 1 .3 0-5.8 5.7-5.7 5.4a1.7 1.7 0 0 0 1.3 2c1.6.2 3.4-5.8 5.2-2.3 3.2 7.4-5.6 11.8 6 10 .5 0 14-9.6 14.4-8.3 1.3 3.6-20.8 13.4-11 16.8-1.3 2-12.4 6.6-10 10.8a15.6 15.6 0 0 0 4.6-.7c.3.7-7.7 3.6-1.8 5 2.2.7 6-4.4 6.8-5.2 5.8-4 1 10.8 0 9.6 2.7 3.4 16 2.5 16 .3 0 5.8-16.4 10-18.4 13.5-2.4 4.3 23.5 5.8 23 4.6.5 1.2-9.2 1.2-6 2.8-5.2 2.4-16 1.3-21.2 1.3-4 2.8 7 5 6.8 4.3a8.3 8.3 0 0 1-6.3 2.2c.3-1 4.6 9-2.2 5.3-4.3-2.3 1.2-4 1-6-.4-4.6-19.7 7.7-16.8 7.3-3.3.6-1.3-2-3.3-3-2-.8-5 3.5-6 3.8-1-2.2-17.6 12.7-16 13 5 1 18.6-9.2 17.5 0 0 1-2.3 5.5-3 6-6 4-3.2-3.5-6.7-4.3-8-1.7.5 14.6-3.7 17.8-5.7 4.4-17-7.4-17.4-7.2a4 4 0 0 1 2.2 2.6c3 .2-3.2-5.4-3.8-5.3-1 0-2 7.3-5.7 7.7-11.2 1.3-7.5-6-8.8-13.5-.3-1.8-5.2-16-6.5-14.7 1.2-1.3 4.5 3.5 5.5-1 0-.8-.4-8-2.5-5-1 1.6 5 3 .6 4.5-1.4.4-6.2-12.6-9.2-9.2 0 0 4.5 4 4.6 5.5 0 10.7-8-4.3-6.7-3.4 0 0-9-3.6-6.2-4.7-2.7 1 1 3.8-4.7 3.3-1 0-2-6.2-3.2-1.8-.6 2.3-5.6 1.3-7.3 1.6 1.2-1.7-3.7-4.7-3-7.5.3-.5 12.8 3.4 14 4-2.7-1 3-6.8 3-7-.2-10.5 6.6 1 7.7-2 0-.2-22-20.6-20.8-22.5 3.5-5.7 10.8 9.5 14-1.7 2.3-8-14.2-13.3-13.3-15.7s15.2 7.6 18.8 7c5-.6 4.6-11.2 5-16.6 0 .5 1-1.8.3-2.2-1 3.7-8-.6-9.5-2-4.4-4.8-2.2-15.2-.7-20.7a8.5 8.5 0 0 0 2.2 3 2.7 2.7 0 0 1 2.2-1.7c0 .4 1-1.2 2.8-.2 0 0 4.2 14.8 6 16.6 7.8 7.7 0-20 .7-20.3 2-1 4.3 14.6 5 15s2.7-11.6 6.7-10.7c.4-2.3 0 4.8 1.4 4.8 10 .4 1-22 1.7-22a19.8 19.8 0 0 0-.2 3.6c0-.2-3-11.5-3-13a63 63 0 0 1 .8-24c2.8 2.4 7.7 37.3 8.3 36.6a6 6 0 0 1-.3-2.2 10.8 10.8 0 0 1 3 1.5c.8 0 2.5-9 5-5.7 1.2 1.4 6.3 25.3 10.8 21.5-.7.7 2-13.5 2-13 0-.2 5-8.8 4.8-8.7 0 0 1 1.7 1.3 1.7zm-48.8 20.2zm-15.4 77.8c0 .4 1.6.8 1 .4 1 .6 4.6 4.3 6.3 1 1.3-2.7-7.3-5-7.3-1.4zM75.2 174.4c-2.2.7-3.4-19.4-1.8-19.4 2 0 1.8 19 1.8 19.4z"/><path class="cls-1" d="M119 182.6c.4 0 .4 1.6 0 2-1-.7.2-1.2 0-2zM158.8 194c.7 1.4-1 2.5 0 0zM223.4 204.2c-2 1.2-3.5 3-5.5 4.2-1-1 .6-1 1-1.3M182.2 218.8c0 1-.7 2.4-1.6 2.2s1.3-1.8 1.6-2.2zM236.6 234c-1 1-2.6 1.3-4.2 1.8 1.4-.7 2.5-1.6 4.2-1.8zM231.3 236.2a13 13 0 0 1-4.4 2.2 13.3 13.3 0 0 1 4.3-2.2zM155.3 341.2c-2.4 2-6.2 3.6-7.6 4.8.7-.4-.5-4 1.6-5.5s5 1.3 6 .7zM131.7 347.8a10.7 10.7 0 0 0 2 1.3c-.5 1-1.7-.6-2-1.2zM167.8 192.5c1.3-1 0 2.5-.6 1.6s.2-1.2.6-1.5zM174.2 197.8c.8 1.3-1 4-2 2.7-.5-1 1.6-2 2-2.7z"/><path class="cls-1" d="M135.8 223a13.7 13.7 0 0 0 0 4.2c3.8 3 4.8-15.4 9-16.8a32.3 32.3 0 0 1-.8 3.6c2.5 2.8 7.5-6.2 6.8-6 2 .6-4.4 11-3 13.2 2.7 4.7 17.5-20.2 19.5-23.4 7.4-11.6 15-23.5 22.8-35 12-18 24.3-36.4 37-54.5a4.7 4.7 0 0 1 2.5-3c1 1-77.2 124-80 123.4-2-.4-4.8 2-8 3.3-.5.2-1.7 3.2-2.2 3.8-1 1-3 2.6-5 1.7-5.2-2.2-.3-12 1.5-14.5zM51.8 330.8c.7-.7 1.4.2 1 .7s-1.6 0-1-.7z"/></g></g></g></svg>