<svg xmlns="http://www.w3.org/2000/svg" viewBox="0 0 112 634.33"><style>.cls-1{fill:#b3b3b3;}.cls-2{fill:gray;}.cls-3{fill:#333;}.cls-4{fill:#c7b299;}.cls-5{fill:#998675;}.cls-6{fill:#999;}.cls-7{fill:#e6e6e6;}.cls-8{fill:#ccc;}.cls-9{fill:#4d4d4d;}</style><title>sword1</title><g id="Capa_2" data-name="Capa 2"><g id="Capa_2-2" data-name="Capa 2"><path class="cls-1" d="M39,130.33c5.1,206.84-1.28,465,16.06,504C75.8,612.45,66.88,348.56,73,130.33Z"/><path class="cls-2" d="M72.59,145.89,65,156.33l-2,326c0,8-1.71,12.1-3,12v71c-.38,8.27-1.64,13.53-4,15v52.81C75.06,605,67.37,357.49,72.59,145.89Z"/><polygon class="cls-3" points="47 125.33 49 37.33 63 37.33 65 127.33 47 125.33"/><path class="cls-4" d="M6,145.33c-.91-8.93,2.72-14.3,14-14H46c5.79-.08,9.12,2.37,10,8v-25c-2.38,8.19-12.1,11.49-26,12l-26,2s-4-1-4,4S6,145.33,6,145.33Z"/><path class="cls-5" d="M106,145.33c.91-8.93-2.72-14.3-14-14H66c-5.79-.08-9.12,2.37-10,8v-25c2.38,8.19,12.1,11.49,26,12l26,2s4-1,4,4S106,145.33,106,145.33Z"/><path class="cls-6" d="M60,491.33l-1-326,4-6C61,320.33,63.11,482.41,60,491.33Z"/><path class="cls-6" d="M50,493.33l-1-332-3-4C48,314.33,46,474.25,50,493.33Z"/><path class="cls-2" d="M55,579.33c-3-3.67-3-9-3-17v-400l3,3Z"/><path class="cls-7" d="M46,43.33c.94-8.83-1.14-13.52-7-13-.52-8.2-.18-15.69,4-20-1-10,4-14.72,9-5h7c4.94-6.64,10-8,9,6,4.08,3.81,4,10,4,19-6.4-.57-8,4.66-7,13Z"/><path class="cls-6" d="M68.93,12.34l-2.15-1.77a11,11,0,0,0-2.56-1.73,3.7,3.7,0,0,0-3-.08,2.26,2.26,0,0,0-1.27,2.55,7,7,0,0,0,1.2,1.78,1.56,1.56,0,0,1,.07,2,2.92,2.92,0,0,1-1,.44,5.33,5.33,0,0,0-2.47,2.58A5.58,5.58,0,0,0,56.86,20a5.59,5.59,0,0,0,.35,2.41L58.27,26c-1.11-1.09-3-.82-4.32,0a2.77,2.77,0,0,0-1.4,1.73c-.13.75.46,1.64,1.22,1.55l-.09,1.24a11,11,0,0,0-4.84,1.31,4.27,4.27,0,0,0-3-2.56,9.16,9.16,0,0,0-3-.19,6.85,6.85,0,0,0-2.35.2.79.79,0,0,0-.33,1c3,.1,4.85,1.84,5.64,5a1.57,1.57,0,0,0,1.47.35c.82-.28,1.1-1.27,1.58-2a6.21,6.21,0,0,1,2.8-2,6.93,6.93,0,0,1,2.86-.78,2.61,2.61,0,0,1,2.42,1.45,1,1,0,0,1-.22,1.2,1.3,1.3,0,0,1-.73.14H50.44c-.33,0-.78.1-.79.44a.63.63,0,0,0,.23.41,10.27,10.27,0,0,0,5.38,2.67,38.88,38.88,0,0,0,6.07.51,7,7,0,0,1,2.36.38,2.93,2.93,0,0,1,1,.72c.09-5.64,2.12-8.94,7.26-8.48C72,22.08,72.06,16.2,68.93,12.34Z"/><path class="cls-8" d="M58.14,12.06l-.78,5a.38.38,0,0,1-.55,0,1.09,1.09,0,0,1-.21-.58,14,14,0,0,1-.23-2.08,7,7,0,0,1,1-3.6,2.29,2.29,0,0,1,.46-.59,1.54,1.54,0,0,1,1.36-.34C59,10.57,58.28,11.16,58.14,12.06Z"/><path class="cls-8" d="M53.86,14.64a4.72,4.72,0,0,1-.17,1.55,1.6,1.6,0,0,1-1.05,1.07,10.77,10.77,0,0,1,0-2.6c.11-.87.29-1.87-.3-2.52-.41-.46-2-1.44-2-2.16.06-.53.66-.42,1.11-.21a5.46,5.46,0,0,1,1.58,1.74A4.91,4.91,0,0,1,53.86,14.64Z"/><path class="cls-1" d="M65.07,4.79a4.59,4.59,0,0,0,1.68-3c0-.11.06-.23.08-.34C65.14-.85,62,1.23,59,5.33h-.22a1.31,1.31,0,0,1-.16.49,5.39,5.39,0,0,1,3.56,1.1l2.14,1.28a1.06,1.06,0,0,0,.42.17c.5,0,.78-.6.71-1.09a1.93,1.93,0,0,0-.49-1c-.25-.27-.6-.55-.52-.9S64.82,4.94,65.07,4.79Z"/><path class="cls-9" d="M46.7,16.06a5.15,5.15,0,0,0-1.41.12,5.17,5.17,0,0,0-2,1.3c.78-.71,3.43.43,4.13.86,1.07.65,2,2.33,3.38,1.47a1.83,1.83,0,0,0,.48-2.74C50.23,15.72,48.21,16.07,46.7,16.06Z"/><path class="cls-9" d="M60.29,16.3c-.85.15-1.78.68-1.83,1.54a2.12,2.12,0,0,0,.28,1,1.82,1.82,0,0,0,.81.95,5.77,5.77,0,0,0,.94.18,1.82,1.82,0,0,0,.81.15,1.35,1.35,0,0,0,.58-.42,4.58,4.58,0,0,1,2.1-1.1c.68-.17,1.62.06,1.22-.83C64.6,16.41,61.5,16.08,60.29,16.3Z"/></g></g></svg>
