<svg xmlns="http://www.w3.org/2000/svg" viewBox="0 0 84 568.3"><defs><style>.cls-1{fill:#b3b3b3;}.cls-2{fill:gray;}.cls-3{fill:#ddd5ce;}.cls-4{fill:#8c6239;}.cls-5{fill:#a67c52;}</style></defs><title>Recurso 2</title><g id="Capa_2" data-name="Capa 2"><g id="Capa_3" data-name="Capa 3"><path class="cls-1" d="M40.5,568.3c9.28-12.23,13.77-29,14.5-49.3l1-344L40,162,25,177l3,343C27.94,541.27,32.31,557.12,40.5,568.3Z"/><path class="cls-2" d="M41,567.6c8.94-12.17,13.29-28.67,14-48.6l1-343.83L46,186V518c.87,16.61-.5,28.56-5,34Z"/><path class="cls-2" d="M41,520c-2.46,10.13-3.54,7.87-4,0L36,180l5,8Z"/><path class="cls-3" d="M3,180c22.11-8.67,48.11-7.33,76,0l5-11q-46-14-84,0Z"/><polygon class="cls-3" points="34 163 47 163 47 107 36 107 34 163"/><polygon class="cls-3" points="47 89 46 29 36 30 35 90 47 89"/><path class="cls-4" d="M36,27a2.1,2.1,0,0,0-1,4H47q2.33-3.17-1-4a53,53,0,0,1,7-17C51.76,5.89,47.52,2.62,41,0,34.5,2,29.86,5.33,28,10A40,40,0,0,1,36,27Z"/><path class="cls-5" d="M35,92v12a1.5,1.5,0,0,0,0,3H48c2,0,2-4,0-4V91a1.5,1.5,0,0,0,0-3H34C33,88,33,92,35,92Z"/><path class="cls-4" d="M33,160H48c1.45.27,2,2,0,2l-15,.2q-2.17-1.1,0-2.2Z"/></g></g></svg>